
<!-- Generator: Adobe Illustrator 27.5.0, SVG Export Plug-In . SVG Version: 6.00 Build 0)  -->
<svg version="1.1" xmlns="http://www.w3.org/2000/svg" xmlns:xlink="http://www.w3.org/1999/xlink" x="0px" y="0px"
	 viewBox="0 0 190 190">
<!-- <g id="BACKGROUND">
	<rect style="fill:#CCC29B;" width="190" height="190"/>
</g> -->
<g id="OBJECTS" transform="translate(-50 -540)">
	<g>
		<g>
			<g>
				<path style="fill:#F75182;" d="M169.98,575.853c-0.52-2.418-0.264-4.892-0.794-7.288c-0.947-4.281-3.308-7.932-5.464-11.631
					c-0.974-1.671-2.594-3.027-4.724-4.187c1.175,3.476,2.303,6.647,0.773,9.974c-0.869-3.026-1.079-6.202-2.61-9.426
					c-0.508,2.178-2.055,3.372-2.925,5.023c-0.777,1.474-2.188,1.469-3.194,0.136c-0.519-0.688-0.901-1.45-1.361-2.165
					c-1.172-1.823-2.451-3.577-3.687-5.359c-0.334,3.936,0.59,7.883-0.888,12.049c-1.738-3.782-0.304-7.498-1.183-11.025
					c-1.841,1.816-2.851,4.091-4.285,6.066c-1.117,1.538-2.28,1.403-3.346-0.206c-1.161-1.751-2.339-3.491-3.328-5.406
					c-1.288,1.176-1.516,2.677-2.066,4.015c-0.538,1.31-0.702,2.696-0.845,4.095c-0.14,1.371-0.39,2.732-0.591,4.096
					c-0.143-0.015-0.287-0.03-0.43-0.044c-0.196-0.886-0.563-1.774-0.556-2.659c0.023-3.015,0.696-5.913,2.248-8.965
					c-3.144,2.517-4.621,4.73-6.442,7.953c-3.067,5.43-3.313,11.426-3.882,17.363c-0.236,2.466,0.134,5.002-0.214,7.443
					c-0.638,4.475,0.438,8.651,1.947,12.704c2.03,5.452,5.271,10.149,9.69,14.022c2.213,1.939,4.321,3.998,6.255,6.243
					c0.679,0.788,1.223,1.937,2.434,2.271c-0.397-2.996-1.493-5.694-2.179-8.503c-1.017-4.169-2.226-8.29-3.306-12.444
					c-0.158-0.609-0.391-0.999-1.009-1.081c-1.595-0.21-1.826-1.317-1.985-2.67c-0.19-1.622,0.643-2.608,1.806-3.361
					c1.203-0.779,3.156-0.467,4.235,0.529c1.119,1.034,0.989,2.328,0.556,3.585c-0.184,0.535-0.169,0.972-0.144,1.522
					c0.11,2.485,1.357,4.625,2.006,6.936c1.063,3.782,2.232,7.531,3.162,11.356c0.439,1.807,0.642,3.715,1.531,5.571
					c1.206-2.128,1.211-4.393,1.823-6.482c1.364-4.659,2.838-9.283,4.219-13.935c0.258-0.868,0.774-1.816,0.296-2.837
					c-0.923-1.971-0.56-3.484,1.127-4.961c1.192-1.044,2.873-1.005,4.046,0.081c2.488,2.304,2.336,4.423-0.655,6.516
					c-0.433,0.303-0.92,0.435-1.042,1.105c-0.574,3.172-1.83,6.157-2.594,9.288c-0.946,3.874-1.928,7.749-3.252,11.545
					c2.266-2.775,4.811-5.257,7.25-7.828c3.266-3.443,7.186-6.201,9.415-10.67c2.167-4.342,4.122-8.685,4.721-13.523
					c0.169-1.369,0.073-2.771-0.092-4.168C170.029,582.973,170.734,579.363,169.98,575.853z"/>
				<path style="fill:#89022C;" d="M169.461,559.056c-2.211-3.564-4.336-7.104-7.934-9.726c-2.982-2.173-7.053-0.75-7.896,2.63
					c-0.212,0.852-0.332,1.88-1.072,2.552c-1.515-1.905-2.465-4.068-3.747-6.029c-2.08-3.183-5.342-3.153-7.256,0.057
					c-1.115,1.871-2.043,3.856-3.6,5.778c-0.395-1.12-0.74-2.13-1.106-3.133c-0.972-2.657-4.086-4.261-6.344-3.022
					c-1.863,1.023-3.752,2.274-4.983,3.993c-2.671,3.729-5.18,7.532-6.752,11.972c-1.769,4.999-1.916,10.176-2.547,15.3
					c-0.275,2.234,0.245,4.554,0.177,6.828c-0.064,2.144,0.031,4.28,0.257,6.391c0.503,4.701,2.593,8.826,4.871,12.9
					c1.494,2.671,3.227,5.091,5.416,7.221c1.618,1.575,3.113,3.274,4.702,4.879c1.445,1.459,3.005,2.808,4.402,4.31
					c1.712,1.841,3.303,3.827,4.174,6.206c0.392,1.07,0.579,2.375,1.716,2.61c1.042,0.216,1.991,0.829,3.072,0.774
					c1.025-0.052,1.938-1.259,3.123-0.228c0.161,0.14,1.061-0.174,1.45-0.79c0.521-0.825,0.684-1.753,1.056-2.611
					c1.244-2.87,3.417-5.074,5.55-7.258c3.286-3.364,6.744-6.553,9.804-10.144c2.61-3.063,4.239-6.671,5.936-10.228
					c2.032-4.259,2.172-8.859,2.363-13.523c0.192-4.714,0.012-9.373-0.528-14.019C173.206,567.935,172.048,563.226,169.461,559.056z
					 M170.538,590.682c-0.599,4.839-2.554,9.181-4.721,13.523c-2.23,4.469-6.15,7.227-9.415,10.67
					c-2.439,2.572-4.985,5.054-7.25,7.828c1.324-3.795,2.306-7.671,3.252-11.545c0.764-3.131,2.02-6.115,2.594-9.288
					c0.121-0.67,0.608-0.802,1.042-1.105c2.991-2.093,3.143-4.212,0.655-6.516c-1.173-1.086-2.854-1.126-4.046-0.081
					c-1.687,1.478-2.05,2.99-1.127,4.961c0.478,1.021-0.038,1.97-0.296,2.837c-1.381,4.652-2.855,9.276-4.219,13.935
					c-0.612,2.089-0.616,4.354-1.823,6.482c-0.889-1.856-1.092-3.764-1.531-5.571c-0.93-3.825-2.099-7.573-3.162-11.356
					c-0.649-2.311-1.896-4.45-2.006-6.936c-0.024-0.55-0.04-0.987,0.144-1.522c0.433-1.257,0.563-2.551-0.556-3.585
					c-1.079-0.997-3.031-1.308-4.235-0.529c-1.164,0.753-1.996,1.739-1.806,3.361c0.158,1.352,0.389,2.46,1.985,2.67
					c0.617,0.081,0.85,0.471,1.009,1.081c1.08,4.154,2.289,8.275,3.306,12.444c0.686,2.809,1.782,5.507,2.179,8.503
					c-1.212-0.334-1.755-1.483-2.434-2.271c-1.934-2.245-4.043-4.304-6.255-6.243c-4.419-3.873-7.66-8.57-9.69-14.022
					c-1.509-4.054-2.584-8.229-1.947-12.704c0.348-2.441-0.023-4.977,0.214-7.443c0.569-5.937,0.815-11.933,3.882-17.363
					c1.821-3.223,3.298-5.437,6.442-7.953c-1.553,3.051-2.225,5.95-2.248,8.965c-0.007,0.885,0.36,1.772,0.556,2.659
					c0.143,0.015,0.287,0.03,0.43,0.044c0.202-1.365,0.451-2.725,0.591-4.096c0.143-1.399,0.307-2.786,0.845-4.095
					c0.55-1.338,0.778-2.839,2.066-4.015c0.989,1.915,2.168,3.655,3.328,5.406c1.067,1.609,2.229,1.744,3.346,0.206
					c1.435-1.976,2.445-4.25,4.285-6.066c0.879,3.527-0.554,7.243,1.183,11.025c1.478-4.166,0.554-8.113,0.888-12.049
					c1.236,1.782,2.514,3.536,3.687,5.359c0.46,0.715,0.842,1.478,1.361,2.165c1.006,1.333,2.417,1.338,3.194-0.136
					c0.871-1.651,2.417-2.846,2.925-5.023c1.531,3.224,1.741,6.4,2.61,9.426c1.53-3.327,0.402-6.498-0.773-9.974
					c2.13,1.16,3.75,2.516,4.724,4.187c2.156,3.699,4.517,7.35,5.464,11.631c0.53,2.396,0.274,4.871,0.794,7.288
					c0.754,3.51,0.049,7.12,0.466,10.661C170.611,587.911,170.707,589.313,170.538,590.682z"/>
			</g>
			<g>
				<path style="fill:#F75182;" d="M91.041,594.994c-2.46-0.253-4.735-1.26-7.177-1.497c-4.364-0.423-8.566,0.695-12.75,1.602
					c-1.891,0.41-3.681,1.532-5.442,3.199c3.669-0.043,7.033-0.136,9.724,2.347c-3.146-0.108-6.232-0.89-9.771-0.43
					c1.914,1.156,2.572,2.996,3.873,4.334c1.162,1.195,0.721,2.535-0.858,3.08c-0.814,0.281-1.658,0.409-2.48,0.625
					c-2.096,0.552-4.159,1.225-6.236,1.85c3.64,1.534,7.679,1.875,11.185,4.568c-4.134,0.484-7.225-2.027-10.851-2.281
					c1.159,2.312,3.01,3.975,4.445,5.95c1.117,1.537,0.63,2.602-1.23,3.119c-2.024,0.563-4.043,1.145-6.17,1.495
					c0.72,1.589,2.077,2.269,3.18,3.205c1.079,0.916,2.347,1.501,3.634,2.069c1.261,0.557,2.477,1.215,3.713,1.828
					c-0.058,0.132-0.117,0.264-0.175,0.395c-0.903-0.088-1.861-0.013-2.7-0.293c-2.86-0.953-5.409-2.489-7.831-4.909
					c1.422,3.768,3.07,5.857,5.573,8.584c4.216,4.595,9.843,6.682,15.313,9.058c2.272,0.987,4.799,1.418,7.013,2.503
					c4.059,1.989,8.362,2.257,12.684,2.074c5.812-0.246,11.281-1.877,16.33-4.882c2.528-1.505,5.138-2.874,7.871-4.02
					c0.96-0.402,2.22-0.564,2.912-1.613c-2.972-0.549-5.877-0.339-8.76-0.555c-4.279-0.32-8.572-0.445-12.856-0.701
					c-0.629-0.038-1.071,0.063-1.339,0.625c-0.693,1.452-1.817,1.33-3.152,1.063c-1.602-0.321-2.282-1.417-2.639-2.756
					c-0.369-1.385,0.531-3.146,1.812-3.864c1.329-0.745,2.52-0.221,3.582,0.579c0.451,0.34,0.872,0.461,1.403,0.607
					c2.398,0.663,4.818,0.139,7.216,0.235c3.926,0.158,7.852,0.205,11.777,0.502c1.854,0.141,3.732,0.537,5.771,0.266
					c-1.651-1.805-3.804-2.509-5.601-3.737c-4.01-2.737-7.951-5.567-11.949-8.319c-0.746-0.513-1.488-1.297-2.607-1.158
					c-2.16,0.268-3.486-0.544-4.37-2.605c-0.625-1.456-0.068-3.043,1.328-3.823c2.96-1.654,4.928-0.855,5.995,2.636
					c0.154,0.506,0.13,1.01,0.729,1.332c2.84,1.526,5.29,3.643,8.032,5.337c3.392,2.096,6.774,4.228,9.975,6.66
					c-1.938-3.012-3.513-6.2-5.205-9.315c-2.265-4.17-3.677-8.75-7.238-12.252c-3.46-3.403-6.986-6.604-11.403-8.669
					c-1.25-0.584-2.613-0.926-3.993-1.201C97.827,597.148,94.612,595.361,91.041,594.994z"/>
				<path style="fill:#89022C;" d="M74.905,590.298c-4.073,1.002-8.096,1.929-11.702,4.54c-2.989,2.165-2.893,6.476,0.061,8.322
					c0.745,0.465,1.685,0.897,2.096,1.808c-2.28,0.852-4.63,1.088-6.891,1.7c-3.67,0.994-4.649,4.107-2.188,6.918
					c1.435,1.639,3.036,3.135,4.383,5.21c-1.187,0.029-2.255,0.045-3.321,0.084c-2.828,0.104-5.315,2.569-4.834,5.1
					c0.397,2.088,1.003,4.271,2.257,5.973c2.721,3.693,5.563,7.254,9.3,10.121c4.208,3.227,9.086,4.967,13.764,7.15
					c2.04,0.952,4.407,1.175,6.549,1.942c2.02,0.724,4.08,1.293,6.157,1.731c4.626,0.975,9.195,0.262,13.774-0.646
					c3.002-0.595,5.839-1.496,8.541-2.919c1.997-1.052,4.076-1.949,6.093-2.964c1.834-0.923,3.599-1.99,5.459-2.855
					c2.28-1.059,4.661-1.958,7.193-2.052c1.138-0.042,2.438,0.183,3.013-0.826c0.527-0.925,1.404-1.638,1.685-2.682
					c0.267-0.991-0.598-2.232,0.749-3.041c0.183-0.11,0.162-1.063-0.303-1.623c-0.623-0.751-1.456-1.192-2.157-1.811
					c-2.344-2.07-3.77-4.817-5.188-7.521c-2.183-4.165-4.148-8.439-6.618-12.459c-2.107-3.429-5.035-6.093-7.893-8.807
					c-3.423-3.249-7.755-4.804-12.131-6.426c-4.424-1.64-8.91-2.908-13.496-3.83C84.507,589.479,79.671,589.125,74.905,590.298z
					 M105.316,599.046c4.417,2.065,7.943,5.266,11.403,8.669c3.561,3.502,4.973,8.082,7.238,12.252
					c1.692,3.115,3.266,6.302,5.205,9.315c-3.2-2.432-6.583-4.564-9.975-6.66c-2.741-1.694-5.192-3.811-8.032-5.337
					c-0.599-0.322-0.575-0.826-0.729-1.332c-1.067-3.491-3.034-4.291-5.995-2.636c-1.395,0.78-1.952,2.366-1.328,3.823
					c0.884,2.061,2.211,2.874,4.37,2.605c1.119-0.139,1.861,0.645,2.607,1.158c3.998,2.751,7.939,5.581,11.949,8.319
					c1.798,1.227,3.951,1.932,5.601,3.737c-2.039,0.272-3.918-0.125-5.771-0.266c-3.925-0.297-7.851-0.344-11.777-0.502
					c-2.398-0.097-4.818,0.428-7.216-0.235c-0.531-0.147-0.951-0.267-1.403-0.607c-1.062-0.8-2.252-1.324-3.582-0.579
					c-1.281,0.718-2.181,2.479-1.812,3.864c0.357,1.339,1.037,2.436,2.639,2.756c1.335,0.267,2.46,0.39,3.152-1.063
					c0.268-0.562,0.711-0.663,1.339-0.625c4.284,0.256,8.578,0.38,12.856,0.701c2.884,0.216,5.788,0.007,8.76,0.555
					c-0.692,1.049-1.952,1.211-2.912,1.613c-2.733,1.146-5.343,2.515-7.871,4.02c-5.049,3.006-10.518,4.637-16.33,4.882
					c-4.322,0.183-8.625-0.085-12.684-2.074c-2.214-1.085-4.74-1.516-7.013-2.503c-5.47-2.375-11.097-4.462-15.313-9.058
					c-2.503-2.728-4.151-4.817-5.573-8.584c2.422,2.42,4.971,3.955,7.831,4.909c0.839,0.28,1.797,0.205,2.7,0.293
					c0.059-0.132,0.117-0.263,0.175-0.395c-1.236-0.614-2.452-1.272-3.713-1.828c-1.287-0.568-2.554-1.153-3.634-2.069
					c-1.103-0.936-2.46-1.617-3.18-3.205c2.127-0.349,4.146-0.932,6.17-1.495c1.86-0.517,2.348-1.581,1.23-3.119
					c-1.436-1.975-3.287-3.638-4.445-5.95c3.626,0.254,6.717,2.765,10.851,2.281c-3.506-2.693-7.544-3.034-11.185-4.568
					c2.077-0.625,4.14-1.298,6.236-1.85c0.822-0.216,1.665-0.344,2.48-0.625c1.579-0.545,2.02-1.885,0.858-3.08
					c-1.302-1.338-1.959-3.178-3.873-4.334c3.539-0.46,6.625,0.322,9.771,0.43c-2.691-2.483-6.056-2.39-9.724-2.347
					c1.762-1.667,3.552-2.789,5.442-3.199c4.184-0.907,8.386-2.025,12.75-1.602c2.442,0.237,4.717,1.244,7.177,1.497
					c3.571,0.367,6.786,2.154,10.283,2.851C102.703,598.12,104.066,598.462,105.316,599.046z"/>
			</g>
			<g>
				<path style="fill:#F75182;" d="M84.851,675.985c-1.001,2.261-2.662,4.113-3.642,6.363c-1.751,4.02-1.986,8.362-2.416,12.621
					c-0.194,1.925,0.319,3.974,1.361,6.164c1.093-3.502,2.044-6.731,5.237-8.523c-1.075,2.959-2.772,5.652-3.428,9.16
					c1.691-1.464,3.644-1.52,5.319-2.345c1.495-0.736,2.634,0.098,2.664,1.768c0.016,0.861-0.123,1.703-0.172,2.552
					c-0.123,2.164-0.12,4.334-0.167,6.503c2.584-2.988,4.156-6.724,7.801-9.226c-0.817,4.081-4.161,6.245-5.523,9.615
					c2.557-0.388,4.711-1.634,7.033-2.389c1.807-0.588,2.669,0.205,2.586,2.134c-0.09,2.099-0.16,4.199-0.485,6.33
					c1.733-0.194,2.8-1.274,4.031-2.033c1.205-0.743,2.153-1.768,3.091-2.816c0.919-1.027,1.921-1.981,2.886-2.966
					c0.107,0.096,0.215,0.193,0.322,0.289c-0.363,0.832-0.587,1.766-1.113,2.478c-1.791,2.425-4.039,4.375-7.088,5.931
					c4.023-0.188,6.519-1.11,9.886-2.648c5.673-2.59,9.397-7.296,13.346-11.765c1.641-1.856,2.831-4.125,4.548-5.896
					c3.146-3.246,4.73-7.256,5.892-11.422c1.563-5.603,1.701-11.309,0.403-17.04c-0.65-2.87-1.146-5.775-1.391-8.728
					c-0.086-1.037,0.149-2.285-0.634-3.268c-1.44,2.657-2.139,5.484-3.235,8.16c-1.627,3.97-3.072,8.015-4.64,12.011
					c-0.23,0.586-0.271,1.038,0.181,1.467c1.167,1.107,0.703,2.139,0.036,3.326c-0.8,1.424-2.053,1.732-3.437,1.658
					c-1.431-0.077-2.828-1.477-3.115-2.917c-0.298-1.494,0.568-2.465,1.658-3.227c0.463-0.324,0.708-0.687,1.011-1.146
					c1.371-2.076,1.621-4.539,2.454-6.79c1.364-3.684,2.621-7.404,4.117-11.045c0.707-1.72,1.664-3.383,2.036-5.407
					c-2.227,1.012-3.562,2.842-5.285,4.173c-3.842,2.967-7.752,5.842-11.604,8.794c-0.718,0.551-1.694,1.014-1.907,2.122
					c-0.412,2.137-1.595,3.147-3.828,3.351c-1.578,0.144-2.915-0.876-3.225-2.444c-0.659-3.327,0.71-4.951,4.36-4.887
					c0.529,0.009,1.001,0.189,1.492-0.282c2.329-2.229,5.099-3.906,7.558-5.989c3.042-2.578,6.115-5.136,9.416-7.428
					c-3.464,0.913-6.982,1.425-10.467,2.072c-4.666,0.866-9.458,0.793-13.889,3.098c-4.305,2.239-8.439,4.604-11.768,8.166
					c-0.942,1.008-1.688,2.199-2.376,3.426C88.997,670.196,86.304,672.702,84.851,675.985z"/>
				<path style="fill:#89022C;" d="M75.398,689.88c-0.306,4.183-0.668,8.296,0.702,12.532c1.135,3.511,5.266,4.752,7.934,2.514
					c0.673-0.564,1.374-1.325,2.367-1.434c0.106,2.431-0.396,4.74-0.512,7.08c-0.188,3.798,2.469,5.69,5.904,4.219
					c2.002-0.858,3.92-1.919,6.309-2.559c-0.339,1.138-0.654,2.158-0.946,3.185c-0.775,2.721,0.801,5.849,3.357,6.173
					c2.108,0.268,4.372,0.366,6.378-0.301c4.353-1.447,8.618-3.049,12.499-5.717c4.369-3.004,7.531-7.106,11.053-10.881
					c1.535-1.646,2.479-3.828,3.871-5.628c1.312-1.697,2.491-3.481,3.549-5.321c2.357-4.099,3.09-8.665,3.642-13.299
					c0.362-3.039,0.381-6.015-0.137-9.025c-0.383-2.225-0.594-4.478-0.936-6.711c-0.311-2.03-0.781-4.038-1.028-6.074
					c-0.303-2.496-0.422-5.038,0.271-7.474c0.312-1.096,0.928-2.262,0.146-3.121c-0.717-0.787-1.124-1.841-2.031-2.432
					c-0.86-0.56-2.308-0.121-2.661-1.652c-0.048-0.208-0.96-0.483-1.637-0.213c-0.907,0.361-1.584,1.016-2.389,1.492
					c-2.693,1.59-5.746,2.097-8.756,2.609c-4.636,0.789-9.308,1.337-13.895,2.444c-3.912,0.944-7.351,2.905-10.814,4.785
					c-4.148,2.251-6.965,5.891-9.86,9.551c-2.926,3.701-5.519,7.575-7.813,11.652C77.587,680.495,75.757,684.984,75.398,689.88z
					 M93.116,663.66c3.329-3.563,7.463-5.927,11.768-8.166c4.431-2.305,9.223-2.232,13.889-3.098
					c3.485-0.647,7.003-1.159,10.467-2.072c-3.302,2.292-6.375,4.85-9.416,7.428c-2.459,2.083-5.229,3.76-7.558,5.989
					c-0.492,0.471-0.963,0.291-1.492,0.282c-3.65-0.064-5.018,1.56-4.36,4.887c0.31,1.568,1.647,2.588,3.225,2.444
					c2.234-0.204,3.416-1.214,3.828-3.351c0.214-1.108,1.189-1.571,1.907-2.122c3.852-2.952,7.762-5.826,11.604-8.794
					c1.723-1.33,3.058-3.161,5.285-4.173c-0.372,2.024-1.329,3.687-2.036,5.407c-1.496,3.641-2.753,7.361-4.117,11.045
					c-0.833,2.251-1.082,4.715-2.454,6.79c-0.303,0.459-0.548,0.822-1.011,1.146c-1.089,0.763-1.955,1.733-1.658,3.227
					c0.287,1.44,1.684,2.84,3.115,2.917c1.384,0.075,2.637-0.234,3.437-1.658c0.667-1.187,1.131-2.219-0.036-3.326
					c-0.452-0.429-0.411-0.881-0.181-1.467c1.568-3.995,3.012-8.04,4.64-12.011c1.096-2.676,1.795-5.503,3.235-8.16
					c0.783,0.983,0.548,2.231,0.634,3.268c0.245,2.953,0.741,5.859,1.391,8.728c1.298,5.731,1.16,11.436-0.403,17.04
					c-1.162,4.166-2.746,8.177-5.892,11.422c-1.716,1.77-2.907,4.04-4.548,5.896c-3.95,4.469-7.673,9.175-13.346,11.765
					c-3.368,1.538-5.864,2.46-9.886,2.648c3.05-1.556,5.298-3.506,7.088-5.931c0.525-0.712,0.75-1.646,1.113-2.478
					c-0.107-0.096-0.215-0.193-0.322-0.289c-0.965,0.986-1.967,1.939-2.886,2.966c-0.938,1.048-1.886,2.073-3.091,2.816
					c-1.231,0.759-2.298,1.84-4.031,2.033c0.325-2.13,0.395-4.231,0.485-6.33c0.083-1.929-0.779-2.721-2.586-2.134
					c-2.322,0.755-4.476,2.002-7.033,2.389c1.362-3.37,4.706-5.534,5.523-9.615c-3.645,2.502-5.217,6.238-7.801,9.226
					c0.047-2.168,0.045-4.339,0.167-6.503c0.048-0.849,0.187-1.69,0.172-2.552c-0.03-1.67-1.169-2.504-2.664-1.768
					c-1.675,0.824-3.628,0.881-5.319,2.345c0.656-3.508,2.353-6.201,3.428-9.16c-3.193,1.792-4.145,5.021-5.237,8.523
					c-1.042-2.191-1.555-4.24-1.361-6.164c0.43-4.259,0.665-8.601,2.416-12.621c0.98-2.25,2.641-4.102,3.642-6.363
					c1.453-3.283,4.146-5.789,5.889-8.899C91.428,665.859,92.174,664.668,93.116,663.66z"/>
			</g>
			<g>
				<path style="fill:#F75182;" d="M159.966,706.899c1.841,1.65,3.089,3.803,4.926,5.43c3.282,2.907,7.339,4.473,11.257,6.198
					c1.77,0.78,3.878,0.924,6.283,0.611c-2.993-2.121-5.77-4.024-6.487-7.615c2.481,1.937,4.518,4.383,7.652,6.091
					c-0.869-2.06-0.32-3.935-0.586-5.783c-0.238-1.649,0.907-2.474,2.504-1.987c0.824,0.251,1.582,0.644,2.374,0.952
					c2.02,0.786,4.085,1.453,6.132,2.169c-2.043-3.381-5.111-6.03-6.363-10.27c3.629,2.039,4.654,5.887,7.438,8.224
					c0.421-2.552-0.098-4.985-0.099-7.427c0-1.9,1.02-2.475,2.829-1.8c1.968,0.735,3.944,1.45,5.87,2.417
					c0.351-1.708-0.346-3.057-0.688-4.462c-0.335-1.376-1.016-2.594-1.723-3.81c-0.693-1.192-1.29-2.439-1.929-3.662
					c0.125-0.072,0.249-0.145,0.374-0.217c0.679,0.602,1.498,1.104,2.012,1.824c1.753,2.453,2.913,5.193,3.45,8.574
					c1.064-3.884,0.958-6.543,0.537-10.221c-0.71-6.196-4.035-11.192-7.065-16.329c-1.258-2.134-3.049-3.968-4.202-6.147
					c-2.115-3.995-5.439-6.741-9.042-9.134c-4.846-3.218-10.23-5.113-16.081-5.649c-2.93-0.268-5.846-0.695-8.731-1.374
					c-1.013-0.239-2.128-0.848-3.304-0.406c2.082,2.191,4.555,3.729,6.761,5.599c3.273,2.774,6.674,5.398,9.989,8.124
					c0.486,0.4,0.904,0.579,1.451,0.281c1.414-0.768,2.252-0.008,3.175,0.993c1.107,1.201,1.013,2.488,0.514,3.781
					c-0.516,1.337-2.278,2.233-3.737,2.061c-1.513-0.179-2.169-1.302-2.557-2.574c-0.165-0.541-0.434-0.885-0.778-1.316
					c-1.55-1.946-3.816-2.944-5.7-4.432c-3.083-2.435-6.232-4.781-9.233-7.328c-1.417-1.203-2.703-2.628-4.513-3.607
					c0.275,2.43,1.602,4.266,2.335,6.315c1.635,4.571,3.161,9.178,4.777,13.753c0.302,0.854,0.441,1.924,1.428,2.469
					c1.905,1.052,2.501,2.489,2.004,4.676c-0.351,1.545-1.734,2.502-3.321,2.312c-3.367-0.402-4.489-2.205-3.3-5.656
					c0.172-0.5,0.489-0.893,0.193-1.506c-1.401-2.904-2.139-6.057-3.361-9.039c-1.512-3.69-2.995-7.403-4.155-11.251
					c-0.202,3.577-0.802,7.081-1.264,10.595c-0.618,4.705-2.168,9.241-1.345,14.166c0.799,4.787,1.77,9.449,4.13,13.715
					c0.668,1.207,1.57,2.285,2.524,3.318C155.741,701.167,157.292,704.503,159.966,706.899z"/>
				<path style="fill:#89022C;" d="M170.259,720.183c3.884,1.583,7.684,3.199,12.135,3.205c3.69,0.005,6.147-3.539,4.842-6.769
					c-0.329-0.814-0.836-1.716-0.633-2.695c2.345,0.65,4.385,1.842,6.575,2.675c3.554,1.353,6.175-0.59,5.837-4.311
					c-0.197-2.169-0.613-4.321-0.484-6.791c0.978,0.674,1.851,1.289,2.737,1.884c2.348,1.578,5.81,1.046,6.909-1.285
					c0.906-1.922,1.699-4.045,1.685-6.159c-0.031-4.587-0.236-9.138-1.575-13.654c-1.507-5.084-4.431-9.358-6.933-13.875
					c-1.091-1.969-2.875-3.54-4.156-5.42c-1.209-1.773-2.541-3.444-3.964-5.019c-3.17-3.508-7.285-5.617-11.523-7.573
					c-2.779-1.283-5.603-2.221-8.626-2.659c-2.234-0.323-4.443-0.819-6.672-1.183c-2.027-0.331-4.081-0.505-6.094-0.899
					c-2.467-0.483-4.921-1.155-7.025-2.568c-0.946-0.635-1.864-1.581-2.923-1.103c-0.97,0.438-2.098,0.5-2.94,1.18
					c-0.798,0.645-0.828,2.158-2.393,2.02c-0.212-0.019-0.756,0.764-0.709,1.491c0.063,0.974,0.477,1.82,0.68,2.733
					c0.68,3.053,0.219,6.113-0.224,9.134c-0.682,4.653-1.605,9.266-1.969,13.97c-0.311,4.012,0.492,7.889,1.209,11.764
					c0.859,4.64,3.45,8.444,6.037,12.329c2.615,3.927,5.499,7.59,8.667,11.032C162.01,715.201,165.714,718.33,170.259,720.183z
					 M150.798,695.23c-2.36-4.267-3.331-8.929-4.13-13.715c-0.823-4.926,0.727-9.462,1.345-14.166
					c0.462-3.515,1.062-7.019,1.264-10.595c1.16,3.849,2.643,7.561,4.155,11.251c1.222,2.982,1.96,6.135,3.361,9.039
					c0.296,0.613-0.021,1.006-0.193,1.506c-1.189,3.451-0.067,5.255,3.3,5.656c1.587,0.189,2.97-0.767,3.321-2.312
					c0.496-2.187-0.099-3.624-2.004-4.676c-0.987-0.545-1.127-1.616-1.428-2.469c-1.617-4.576-3.143-9.182-4.777-13.753
					c-0.733-2.049-2.061-3.885-2.335-6.315c1.81,0.979,3.096,2.404,4.513,3.607c3.001,2.548,6.15,4.893,9.233,7.328
					c1.883,1.488,4.15,2.486,5.7,4.432c0.343,0.431,0.612,0.775,0.778,1.316c0.389,1.272,1.044,2.395,2.557,2.574
					c1.459,0.172,3.221-0.724,3.737-2.061c0.499-1.293,0.592-2.58-0.514-3.781c-0.923-1.001-1.761-1.761-3.175-0.993
					c-0.547,0.297-0.965,0.119-1.451-0.281c-3.315-2.726-6.716-5.35-9.989-8.124c-2.206-1.87-4.679-3.408-6.761-5.599
					c1.177-0.441,2.291,0.168,3.304,0.406c2.885,0.679,5.801,1.106,8.731,1.374c5.851,0.536,11.235,2.431,16.081,5.649
					c3.603,2.392,6.928,5.139,9.042,9.134c1.154,2.179,2.944,4.013,4.202,6.147c3.029,5.137,6.355,10.133,7.065,16.329
					c0.422,3.678,0.527,6.337-0.537,10.221c-0.538-3.381-1.697-6.122-3.45-8.574c-0.515-0.72-1.333-1.222-2.012-1.824
					c-0.125,0.072-0.249,0.144-0.374,0.217c0.639,1.223,1.236,2.47,1.929,3.662c0.707,1.216,1.389,2.434,1.723,3.81
					c0.342,1.405,1.04,2.754,0.688,4.462c-1.926-0.968-3.902-1.683-5.87-2.417c-1.809-0.675-2.829-0.101-2.829,1.8
					c0,2.442,0.52,4.875,0.099,7.427c-2.784-2.337-3.809-6.185-7.438-8.224c1.253,4.24,4.32,6.889,6.363,10.27
					c-2.047-0.715-4.113-1.383-6.132-2.169c-0.792-0.308-1.55-0.701-2.374-0.952c-1.597-0.487-2.742,0.338-2.504,1.987
					c0.266,1.848-0.283,3.723,0.586,5.783c-3.134-1.708-5.171-4.154-7.652-6.091c0.717,3.591,3.494,5.493,6.487,7.615
					c-2.405,0.314-4.513,0.169-6.283-0.611c-3.918-1.725-7.975-3.291-11.257-6.198c-1.837-1.627-3.085-3.779-4.926-5.43
					c-2.673-2.396-4.224-5.732-6.643-8.351C152.368,697.515,151.466,696.437,150.798,695.23z"/>
			</g>
			<g>
				<path style="fill:#F75182;" d="M212.578,645.014c2.139-1.241,4.571-1.763,6.686-3.007c3.779-2.223,6.521-5.598,9.373-8.791
					c1.289-1.443,2.077-3.403,2.522-5.787c-2.943,2.191-5.61,4.244-9.247,3.817c2.609-1.762,5.565-2.943,8.158-5.395
					c-2.228,0.19-3.842-0.912-5.681-1.23c-1.642-0.284-2.073-1.627-1.116-2.996c0.494-0.706,1.101-1.305,1.639-1.963
					c1.371-1.678,2.645-3.436,3.957-5.162c-3.847,0.898-7.314,2.997-11.734,2.878c3.06-2.821,7.037-2.607,10.12-4.532
					c-2.296-1.189-4.772-1.447-7.094-2.201c-1.807-0.587-2.038-1.735-0.838-3.246c1.307-1.645,2.598-3.303,4.113-4.836
					c-1.516-0.862-3.014-0.615-4.456-0.724c-1.412-0.107-2.781,0.165-4.156,0.462c-1.347,0.291-2.718,0.473-4.079,0.703
					c-0.03-0.141-0.06-0.282-0.09-0.423c0.782-0.46,1.513-1.083,2.357-1.35c2.874-0.91,5.839-1.166,9.221-0.632
					c-3.365-2.212-5.926-2.933-9.555-3.669c-6.112-1.239-11.891,0.38-17.713,1.673c-2.418,0.537-4.715,1.673-7.145,2.097
					c-4.453,0.776-8.092,3.09-11.481,5.777c-4.558,3.615-8.024,8.149-10.342,13.549c-1.161,2.704-2.467,5.345-4.005,7.879
					c-0.54,0.89-1.464,1.761-1.408,3.017c2.727-1.303,4.954-3.18,7.414-4.7c3.65-2.256,7.196-4.679,10.813-6.99
					c0.531-0.339,0.829-0.681,0.716-1.293c-0.293-1.582,0.689-2.144,1.926-2.712c1.484-0.682,2.679-0.195,3.755,0.679
					c1.113,0.904,1.42,2.857,0.805,4.191c-0.637,1.384-1.908,1.66-3.238,1.637c-0.565-0.01-0.976,0.14-1.492,0.333
					c-2.329,0.873-3.979,2.72-5.976,4.051c-3.269,2.179-6.473,4.45-9.823,6.516c-1.582,0.976-3.335,1.759-4.825,3.178
					c2.396,0.49,4.552-0.206,6.728-0.269c4.853-0.142,9.705-0.17,14.557-0.294c0.905-0.023,1.966,0.175,2.79-0.595
					c1.59-1.487,3.14-1.609,5.067-0.461c1.361,0.811,1.843,2.422,1.173,3.873c-1.423,3.078-3.484,3.588-6.399,1.391
					c-0.422-0.318-0.699-0.741-1.373-0.649c-3.195,0.435-6.421,0.163-9.635,0.403c-3.976,0.298-7.966,0.561-11.984,0.475
					c3.339,1.298,6.486,2.951,9.686,4.477c4.284,2.042,8.118,4.918,13.057,5.657c4.799,0.719,9.534,1.236,14.321,0.31
					c1.354-0.262,2.658-0.787,3.936-1.375C205.822,647.26,209.473,646.816,212.578,645.014z"/>
				<path style="fill:#89022C;" d="M228.393,639.329c2.706-3.204,5.417-6.319,6.798-10.551c1.146-3.508-1.466-6.94-4.941-6.697
					c-0.876,0.061-1.89,0.265-2.758-0.231c1.343-2.03,3.107-3.601,4.576-5.426c2.385-2.962,1.347-6.055-2.296-6.883
					c-2.124-0.483-4.299-0.752-6.608-1.638c0.943-0.721,1.798-1.362,2.638-2.02c2.227-1.746,2.79-5.203,0.913-6.968
					c-1.548-1.456-3.322-2.866-5.337-3.505c-4.372-1.388-8.764-2.599-13.472-2.721c-5.301-0.138-10.27,1.322-15.338,2.306
					c-2.21,0.429-4.256,1.64-6.439,2.278c-2.059,0.602-4.061,1.352-5.999,2.219c-4.316,1.931-7.593,5.193-10.763,8.619
					c-2.079,2.246-3.844,4.642-5.194,7.382c-0.998,2.025-2.152,3.972-3.187,5.98c-0.941,1.825-1.742,3.726-2.739,5.518
					c-1.222,2.197-2.619,4.324-4.613,5.888c-0.896,0.703-2.08,1.284-1.952,2.439c0.117,1.058-0.173,2.15,0.213,3.161
					c0.367,0.959,1.796,1.455,1.182,2.9c-0.083,0.196,0.493,0.955,1.199,1.135c0.945,0.241,1.879,0.109,2.809,0.198
					c3.114,0.297,5.882,1.681,8.618,3.036c4.215,2.086,8.316,4.389,12.677,6.19c3.72,1.536,7.655,1.97,11.562,2.485
					c4.679,0.617,9.097-0.672,13.591-1.932c4.543-1.274,8.918-2.884,13.17-4.834C221.106,645.635,225.226,643.079,228.393,639.329z
					 M198.647,650.127c-4.787,0.925-9.521,0.408-14.321-0.31c-4.939-0.74-8.774-3.615-13.057-5.657
					c-3.2-1.525-6.347-3.179-9.686-4.477c4.018,0.086,8.008-0.177,11.984-0.475c3.214-0.24,6.44,0.032,9.635-0.403
					c0.674-0.092,0.95,0.331,1.373,0.649c2.915,2.198,4.977,1.688,6.399-1.391c0.67-1.451,0.189-3.062-1.173-3.873
					c-1.927-1.148-3.477-1.025-5.067,0.461c-0.824,0.771-1.885,0.572-2.79,0.595c-4.851,0.124-9.704,0.151-14.557,0.294
					c-2.176,0.064-4.332,0.759-6.728,0.269c1.49-1.419,3.243-2.202,4.825-3.178c3.35-2.066,6.554-4.337,9.823-6.516
					c1.997-1.331,3.647-3.178,5.976-4.051c0.516-0.193,0.926-0.343,1.492-0.333c1.33,0.023,2.601-0.253,3.238-1.637
					c0.614-1.334,0.307-3.287-0.805-4.191c-1.076-0.874-2.271-1.361-3.755-0.679c-1.237,0.568-2.219,1.131-1.926,2.712
					c0.113,0.612-0.185,0.954-0.716,1.293c-3.617,2.311-7.163,4.734-10.813,6.99c-2.46,1.52-4.687,3.396-7.414,4.7
					c-0.056-1.256,0.868-2.127,1.408-3.017c1.537-2.533,2.844-5.175,4.005-7.879c2.318-5.399,5.784-9.934,10.342-13.549
					c3.389-2.688,7.028-5.001,11.481-5.777c2.429-0.424,4.726-1.56,7.145-2.097c5.822-1.294,11.601-2.912,17.713-1.673
					c3.628,0.736,6.189,1.457,9.555,3.669c-3.382-0.534-6.347-0.278-9.221,0.632c-0.844,0.267-1.574,0.89-2.357,1.35
					c0.03,0.141,0.06,0.282,0.09,0.423c1.361-0.23,2.731-0.413,4.079-0.703c1.375-0.297,2.744-0.568,4.156-0.462
					c1.442,0.109,2.94-0.138,4.456,0.724c-1.515,1.533-2.806,3.191-4.113,4.836c-1.201,1.512-0.97,2.659,0.838,3.246
					c2.322,0.754,4.798,1.012,7.094,2.201c-3.083,1.926-7.06,1.711-10.12,4.532c4.419,0.119,7.887-1.98,11.734-2.878
					c-1.313,1.726-2.586,3.484-3.957,5.162c-0.538,0.658-1.145,1.257-1.639,1.963c-0.957,1.369-0.526,2.712,1.116,2.996
					c1.84,0.318,3.453,1.42,5.681,1.23c-2.593,2.453-5.549,3.634-8.158,5.395c3.637,0.427,6.304-1.625,9.247-3.817
					c-0.445,2.384-1.234,4.344-2.522,5.787c-2.852,3.193-5.594,6.567-9.373,8.791c-2.115,1.244-4.548,1.766-6.686,3.007
					c-3.105,1.802-6.756,2.246-9.995,3.738C201.305,649.34,200.002,649.865,198.647,650.127z"/>
			</g>
		</g>
	</g>
</g>
</svg>
